<svg width="241" height="54" viewBox="0 0 241 54" fill="none" xmlns="http://www.w3.org/2000/svg">
<circle cx="136.888" cy="26.9921" r="17.352" stroke="white" stroke-opacity="0.15" stroke-width="19.28"/>
<circle opacity="0.6" cx="136.888" cy="26.9921" r="15.424" stroke="white" stroke-width="3.856"/>
<path d="M5.61066 48.2002H0L16.2277 5.78418H21.7521L37.9798 48.2002H32.3692L19.1625 12.4945H18.8173L5.61066 48.2002ZM7.68228 31.6314H30.2976V36.1878H7.68228V31.6314Z" fill="white"/>
<path d="M46.6763 48.2002H41.0657L57.2934 5.78418H62.8178L79.0455 48.2002H73.4349L60.2282 12.4945H59.883L46.6763 48.2002ZM48.748 31.6314H71.3632V36.1878H48.748V31.6314Z" fill="white"/>
<path d="M85.9294 48.2002V5.78418H100.862C104.315 5.78418 107.149 6.35028 109.365 7.48248C111.58 8.60087 113.22 10.1404 114.285 12.101C115.349 14.0617 115.882 16.2915 115.882 18.7906C115.882 21.2898 115.349 23.5058 114.285 25.4389C113.22 27.3719 111.587 28.8907 109.386 29.9953C107.185 31.086 104.373 31.6314 100.949 31.6314H88.8642V26.9922H100.776C103.135 26.9922 105.034 26.6608 106.473 25.9981C107.926 25.3353 108.976 24.3964 109.624 23.1814C110.285 21.9525 110.616 20.4889 110.616 18.7906C110.616 17.0924 110.285 15.6081 109.624 14.3378C108.962 13.0675 107.904 12.0872 106.451 11.3968C104.998 10.6927 103.078 10.3406 100.69 10.3406H91.2811V48.2002H85.9294ZM106.732 29.1461L117.608 48.2002H111.393L100.69 29.1461H106.732Z" fill="white"/>
<path d="M195.146 5.78418V48.2002H189.956L165.82 14.897H165.388V48.2002H160.024V5.78418H165.215L189.437 39.1702H189.869V5.78418H195.146Z" fill="white"/>
<path d="M241 5.78418V48.2002H235.81L211.674 14.897H211.242V48.2002H205.878V5.78418H211.069L235.291 39.1702H235.723V5.78418H241Z" fill="white"/>
</svg>
