<svg width="163" height="95" viewBox="0 0 163 95" fill="none" xmlns="http://www.w3.org/2000/svg">
<mask id="path-1-outside-1_1_234" maskUnits="userSpaceOnUse" x="-0.671875" y="-0.140137" width="163" height="95" fill="black">
<rect fill="white" x="-0.671875" y="-0.140137" width="163" height="95"/>
<path d="M96.3281 1.09186L92.2961 18.9478C95.3681 20.4839 98.6321 23.8439 102.088 29.0279C105.352 34.2119 107.272 39.8759 107.848 46.0199L88.2641 49.1879V93.2519H161.128V66.4679C161.128 48.8039 156.04 34.1159 145.864 22.4039C135.496 10.6919 118.984 3.58786 96.3281 1.09186ZM9.06412 1.09186L5.03212 18.9478C8.10412 20.4839 11.3681 23.8439 14.8241 29.0279C18.0881 34.2119 20.0081 39.8759 20.5841 46.0199L1.00012 49.1879V93.2519H73.8641V66.4679C73.8641 48.8039 68.7761 34.1159 58.6001 22.4039C48.2321 10.6919 31.7201 3.58786 9.06412 1.09186Z"/>
</mask>
<path d="M96.3281 1.09186L95.3527 0.871593L95.5495 2.28882e-05L96.4376 0.0978699L96.3281 1.09186ZM92.2961 18.9478L91.8489 19.8423L91.1481 19.4919L91.3207 18.7276L92.2961 18.9478ZM102.088 29.0279L102.92 28.4732L102.927 28.484L102.934 28.495L102.088 29.0279ZM107.848 46.0199L108.844 45.9265L108.931 46.8577L108.008 47.007L107.848 46.0199ZM88.2641 49.1879H87.2641V48.3366L88.1044 48.2007L88.2641 49.1879ZM88.2641 93.2519V94.2519H87.2641V93.2519H88.2641ZM161.128 93.2519H162.128V94.2519H161.128V93.2519ZM145.864 22.4039L146.613 21.741L146.619 21.748L145.864 22.4039ZM9.06412 1.09186L8.08867 0.871593L8.28548 2.28882e-05L9.17363 0.0978699L9.06412 1.09186ZM5.03212 18.9478L4.5849 19.8423L3.88409 19.4919L4.05667 18.7276L5.03212 18.9478ZM14.8241 29.0279L15.6562 28.4732L15.6634 28.484L15.6703 28.495L14.8241 29.0279ZM20.5841 46.0199L21.5798 45.9265L21.6671 46.8577L20.7438 47.007L20.5841 46.0199ZM1.00012 49.1879H0.00012207V48.3366L0.840424 48.2007L1.00012 49.1879ZM1.00012 93.2519V94.2519H0.00012207V93.2519H1.00012ZM73.8641 93.2519H74.8641V94.2519H73.8641V93.2519ZM58.6001 22.4039L59.3489 21.741L59.355 21.748L58.6001 22.4039ZM97.3036 1.31212L93.2716 19.1681L91.3207 18.7276L95.3527 0.871593L97.3036 1.31212ZM92.7433 18.0534C96.0518 19.7077 99.4347 23.245 102.92 28.4732L101.256 29.5826C97.8295 24.4427 94.6844 21.26 91.8489 19.8423L92.7433 18.0534ZM102.934 28.495C106.283 33.8128 108.253 39.6275 108.844 45.9265L106.852 46.1132C106.291 40.1242 104.422 34.6109 101.242 29.5607L102.934 28.495ZM108.008 47.007L88.4238 50.175L88.1044 48.2007L107.688 45.0327L108.008 47.007ZM89.2641 49.1879V93.2519H87.2641V49.1879H89.2641ZM88.2641 92.2519H161.128V94.2519H88.2641V92.2519ZM160.128 93.2519V66.4679H162.128V93.2519H160.128ZM160.128 66.4679C160.128 49.0093 155.105 34.5646 145.109 23.0597L146.619 21.748C156.975 33.6671 162.128 48.5984 162.128 66.4679H160.128ZM145.115 23.0667C134.973 11.6101 118.739 4.5669 96.2186 2.08584L96.4376 0.0978699C119.229 2.60881 136.019 9.7736 146.613 21.741L145.115 23.0667ZM10.0396 1.31212L6.00755 19.1681L4.05667 18.7276L8.08867 0.871593L10.0396 1.31212ZM5.47932 18.0534C8.78786 19.7077 12.1707 23.245 15.6562 28.4732L13.9921 29.5826C10.5655 24.4427 7.42039 21.26 4.5849 19.8423L5.47932 18.0534ZM15.6703 28.495C19.0186 33.8128 20.9892 39.6275 21.5798 45.9265L19.5885 46.1132C19.027 40.1242 17.1577 34.6109 13.9779 29.5607L15.6703 28.495ZM20.7438 47.007L1.15981 50.175L0.840424 48.2007L20.4244 45.0327L20.7438 47.007ZM2.00012 49.1879V93.2519H0.00012207V49.1879H2.00012ZM1.00012 92.2519H73.8641V94.2519H1.00012V92.2519ZM72.8641 93.2519V66.4679H74.8641V93.2519H72.8641ZM72.8641 66.4679C72.8641 49.0093 67.8413 34.5646 57.8453 23.0597L59.355 21.748C69.7109 33.6671 74.8641 48.5984 74.8641 66.4679H72.8641ZM57.8514 23.0667C47.7095 11.6101 31.475 4.5669 8.95461 2.08584L9.17363 0.0978699C31.9653 2.60881 48.7548 9.7736 59.3489 21.741L57.8514 23.0667Z" fill="#FF9142" mask="url(#path-1-outside-1_1_234)"/>
</svg>
